<?xml version="1.0" encoding="UTF-8" standalone="no"?>
<!-- Created with Inkscape (http://www.inkscape.org/) -->

<svg
   width="24.621304mm"
   height="26.103951mm"
   viewBox="0 0 24.621304 26.103951"
   version="1.1"
   id="svg1"
   xml:space="preserve"
   inkscape:export-filename="recon.svg"
   inkscape:export-xdpi="96"
   inkscape:export-ydpi="96"
   xmlns:inkscape="http://www.inkscape.org/namespaces/inkscape"
   xmlns:sodipodi="http://sodipodi.sourceforge.net/DTD/sodipodi-0.dtd"
   xmlns="http://www.w3.org/2000/svg"
   xmlns:svg="http://www.w3.org/2000/svg"><sodipodi:namedview
     id="namedview1"
     pagecolor="#ffffff"
     bordercolor="#000000"
     borderopacity="0.25"
     inkscape:showpageshadow="2"
     inkscape:pageopacity="0.0"
     inkscape:pagecheckerboard="0"
     inkscape:deskcolor="#d1d1d1"
     inkscape:document-units="mm" /><defs
     id="defs1" /><g
     inkscape:label="Capa 1"
     inkscape:groupmode="layer"
     id="layer1"
     transform="translate(-47.011239,-54.834204)"><path
       style="fill:#000000;stroke-width:0.950494"
       d="M 59.116824,80.125023 C 58.818806,79.678871 58.0302,78.547679 57.364363,77.611262 53.365319,71.987133 49.596821,66.607083 49.285861,66.078076 c -0.109113,-0.185622 -0.09171,-0.19756 0.08673,-0.0595 1.065337,0.824316 7.636628,6.050481 8.70382,6.92216 0.747564,0.610607 1.414155,1.129196 1.481307,1.152426 0.114943,0.03973 0.671571,-0.414719 2.887581,-2.357633 2.036785,-1.785767 6.694328,-5.769268 6.878753,-5.883242 0.264094,-0.163218 0.03374,0.261453 -0.912912,1.682983 -0.401868,0.603459 -1.553648,2.386024 -2.559527,3.961247 -2.456019,3.846202 -6.11793,9.447044 -6.173068,9.441636 -0.01093,-9.51e-4 -0.263715,-0.366986 -0.561723,-0.813148 z m -3.12984,-9.605348 c -1.934279,-1.548828 -3.519177,-2.894366 -3.521995,-2.990081 -0.0029,-0.0957 0.175909,-0.497916 0.397169,-0.893797 0.37955,-0.679089 0.392852,-0.774281 0.235273,-1.683733 -0.09186,-0.530176 -0.212761,-1.563866 -0.268667,-2.297087 -0.09327,-1.223276 -0.0687,-1.405086 0.298194,-2.206495 0.826484,-1.805273 2.684308,-3.244863 4.829674,-3.742408 2.944012,-0.682759 6.293771,0.801466 7.564648,3.351783 0.347396,0.69715 0.406146,1.012153 0.399359,2.141586 -0.0048,0.728326 -0.06093,1.801272 -0.125712,2.384333 -0.10963,0.986965 -0.08687,1.118751 0.329831,1.910008 0.246178,0.467434 0.424662,0.867953 0.396641,0.890033 -0.02804,0.02205 -0.437883,0.381728 -0.910782,0.799223 -2.943052,2.59823 -5.948485,5.171188 -6.029363,5.16174 -0.04258,-0.0048 -1.659987,-1.276266 -3.59427,-2.825105 z m 3.286748,-0.298892 c 0.245598,-0.15337 0.371148,-0.152315 0.623447,0.0057 0.17376,0.108517 0.3742,0.161279 0.445421,0.117262 0.213614,-0.132014 -0.03935,-0.96377 -0.428825,-1.409847 l -0.364153,-0.417095 -0.376015,0.376015 c -0.206809,0.206818 -0.417809,0.633523 -0.468879,0.948251 -0.10061,0.619976 0.03735,0.712174 0.569004,0.380167 z M 57.363109,69.18391 c 1.6079,-0.730036 1.70101,-2.79141 0.168294,-3.725917 -0.984483,-0.600256 -2.2615,-0.243222 -2.904992,0.812187 -0.692735,1.136173 -0.09805,2.670413 1.183999,3.054602 0.658617,0.197371 0.844961,0.180461 1.552699,-0.140872 z m -1.758262,-0.236169 c -0.889833,-0.387013 -1.276353,-1.805349 -0.722394,-2.650804 0.743961,-1.135432 2.61977,-1.085588 3.22546,0.08573 0.52626,1.017685 0.116141,2.133926 -0.947269,2.578243 -0.630833,0.263582 -0.925296,0.261092 -1.555797,-0.01312 z m 1.797156,-0.638637 c 0.816975,-0.687435 0.613835,-1.90518 -0.387621,-2.323615 -0.459127,-0.191839 -0.599923,-0.191715 -1.060941,9.12e-4 -0.629797,0.263144 -1.049298,0.968544 -0.892989,1.501562 0.354325,1.208258 1.432251,1.586269 2.341551,0.821141 z m 6.910353,-0.452587 c 0.473612,-0.808158 0.429186,-1.044574 -0.26361,-1.402825 -0.485512,-0.251073 -0.549062,-0.244942 -1.883992,0.181678 -1.982493,0.633561 -1.996874,0.982012 -0.06416,1.55438 1.650115,0.488668 1.737845,0.475456 2.211762,-0.333233 z"
       id="path5" /><path
       d="m 59.091221,54.837578 c -5.367974,0.124244 -10.25583,3.674383 -11.722282,9.132776 -0.478119,1.781648 -0.476932,4.667654 0.0036,6.365502 1.293319,4.569416 4.848827,7.848595 9.622152,8.874394 0.206617,0.04439 0.428101,0.08008 0.659391,0.109037 -0.317063,-0.455451 -0.547017,-0.794087 -0.887801,-1.273824 -0.804608,-0.19868 -1.639794,-0.475678 -2.339909,-0.792199 -3.459496,-1.563989 -6.388993,-5.852046 -6.405293,-9.376172 l -0.0026,-0.585494 c -0.381241,-6.102564 5.065073,-10.549452 9.513631,-11.341944 0.08246,-0.0218 0.164228,-0.04528 0.24753,-0.0646 0.828331,-0.192103 1.679326,-0.231512 2.508374,-0.139526 0.582402,0.06462 1.15592,0.194988 1.708423,0.380855 3.028217,0.708763 5.531382,2.538588 7.139616,5.252909 0.732299,1.235939 1.355942,3.159904 1.473812,4.546493 0,0 0.0612,0.702303 0.0894,1.053682 h 5.17e-4 c 0.155726,1.942755 -1.339367,9.000651 -8.104932,10.920264 -0.02459,0.03762 -0.05471,0.08419 -0.07906,0.121439 -0.295638,0.452114 -0.490588,0.744905 -0.743624,1.12913 0.336181,-0.06419 0.66431,-0.135777 0.9679,-0.223758 2.359368,-0.68375 3.758293,-1.523318 5.493721,-3.295407 2.279068,-2.327227 3.368543,-5.07541 3.398243,-8.573636 0.03017,-3.551227 -1.254652,-6.512929 -3.89382,-8.976197 -1.307858,-1.220668 -2.478804,-1.938841 -4.089672,-2.508891 -1.513747,-0.53567 -3.054312,-0.769627 -4.557345,-0.734838 z"
       style="fill:#000000;stroke-width:0.97727"
       id="path112" /></g></svg>
