<?xml version="1.0" encoding="UTF-8" standalone="no"?>
<!-- Created with Inkscape (http://www.inkscape.org/) -->

<svg
   width="27.454355mm"
   height="25.236704mm"
   viewBox="0 0 27.454355 25.236704"
   version="1.1"
   id="svg1"
   xml:space="preserve"
   sodipodi:docname="recon.svg"
   inkscape:export-filename="recon.svg"
   inkscape:export-xdpi="96"
   inkscape:export-ydpi="96"
   inkscape:version="1.4 (86a8ad7, 2024-10-11)"
   xmlns:inkscape="http://www.inkscape.org/namespaces/inkscape"
   xmlns:sodipodi="http://sodipodi.sourceforge.net/DTD/sodipodi-0.dtd"
   xmlns="http://www.w3.org/2000/svg"
   xmlns:svg="http://www.w3.org/2000/svg"><sodipodi:namedview
     id="namedview1"
     pagecolor="#ffffff"
     bordercolor="#000000"
     borderopacity="0.25"
     inkscape:showpageshadow="2"
     inkscape:pageopacity="0.0"
     inkscape:pagecheckerboard="0"
     inkscape:deskcolor="#d1d1d1"
     inkscape:document-units="mm"
     inkscape:zoom="10.934883"
     inkscape:cx="29.629945"
     inkscape:cy="53.727138"
     inkscape:window-width="2400"
     inkscape:window-height="1261"
     inkscape:window-x="-9"
     inkscape:window-y="-9"
     inkscape:window-maximized="1"
     inkscape:current-layer="layer1" /><defs
     id="defs1" /><g
     inkscape:label="Capa 1"
     inkscape:groupmode="layer"
     id="layer1"
     transform="translate(-89.164583,-81.62438)"><path
       d="m 92.080581,92.554042 c 0.06885,-0.16258 0.154097,-0.32333 0.253215,-0.49816 0.170645,-0.301 0.541856,-0.68644 0.7953,-1.0294 -0.05197,-0.0449 -0.132598,-0.0954 -0.170015,-0.13281 -0.06976,-0.0697 -0.136899,-0.13453 -0.217041,-0.24391 -0.04427,-0.0604 -0.06801,-0.19501 -0.107487,-0.30076 -0.05373,-0.028 -0.107383,-0.0559 -0.161748,-0.0837 -0.02756,0.0938 -0.05821,0.18567 -0.08371,0.2806 -0.155058,0.5778 -0.25433,1.27619 -0.308509,2.00815 z"
       style="stroke-width:0.97727"
       id="path136" /><path
       d="m 106.69293,105.95236 c -0.35525,-0.25107 -0.73471,-0.54262 -1.1374,-0.87126 -0.34879,0.0393 -0.70472,0.0709 -1.07642,0.0847 -0.23407,0.009 -0.70228,-0.016 -0.70228,-0.016 -1.16191,-0.0267 -3.01524,-0.49658 -4.364076,-1.10639 -3.459497,-1.56399 -6.388477,-5.852048 -6.404777,-9.376178 l -10e-4,-0.22169 c -0.04806,0.009 -0.103523,0.016 -0.17725,0.016 -0.248622,0 -0.629526,-0.14905 -0.805119,-0.42995 -0.012,-0.0192 -0.0166,-0.0369 -0.02687,-0.0558 8.03e-4,1.15599 0.121568,2.30166 0.361735,3.1502 1.293318,4.569408 4.848309,7.848078 9.621637,8.873878 1.29346,0.27786 3.13028,0.24572 4.71185,-0.0476 z"
       style="stroke-width:0.97727"
       id="path133" /><path
       d="m 104.07759,81.627752 c -4.220895,0.0977 -8.142171,2.31561 -10.339425,5.91178 0.106617,0.10908 0.168482,0.16974 0.292489,0.29508 l 0.464571,0.46922 c 2.308803,-3.73242 6.784555,-5.9617 9.964245,-5.66736 0.1183,-0.0454 0.69824,-0.0203 1.2883,0.0553 3.58235,0.4595 6.55244,2.40217 8.37468,5.4777 0.7323,1.23594 1.35595,3.1599 1.47382,4.54649 0,0 0.0617,0.70231 0.0899,1.05369 0.13118,1.6365 -0.91133,6.901188 -5.28598,9.668658 0.22081,0.27293 0.4363,0.54403 0.64647,0.817 0.73083,-0.48067 1.42185,-1.06646 2.17351,-1.834 2.27907,-2.32722 3.36855,-5.075408 3.39825,-8.573628 0.0302,-3.55123 -1.25466,-6.51293 -3.89382,-8.9762 -1.30786,-1.22067 -2.47881,-1.93936 -4.08968,-2.50941 -1.51374,-0.53567 -3.05431,-0.76911 -4.55734,-0.73432 z"
       style="stroke-width:0.97727"
       id="path130" /><path
       style="fill:#000000"
       d="m 109.46233,106.49864 c -0.51804,-0.17726 -1.02905,-0.4161 -1.58683,-0.75547 -1.09698,-0.66743 -2.3749,-1.72371 -4.24315,-3.46522 -2.12658,-1.98231 -2.53884,-2.44068 -2.58077,-2.86938 -0.0412,-0.42086 -0.11786,-0.5102 -0.43795,-0.5102 -0.31236,0 -0.38804,-0.0813 -0.38804,-0.41671 0,-0.33831 -0.0599,-0.40104 -0.318506,-0.33342 -0.25334,0.0662 -0.31851,0.005 -0.31851,-0.29993 0,-0.30261 -0.0838,-0.38323 -0.39813,-0.38323 -0.29197,0 -0.39814,-0.0849 -0.39814,-0.31851 0,-0.23565 -0.10617,-0.31851 -0.40815,-0.31851 -0.33185,0 -0.39883,-0.067 -0.35832,-0.35832 0.0411,-0.29546 -0.0256,-0.35832 -0.38039,-0.35832 -0.2948,0 -0.65823,-0.22348 -1.15459,-0.70999 -0.67645,-0.66301 -0.72438,-0.76498 -0.72438,-1.54117 0,-0.70825 -0.0621,-0.87999 -0.41961,-1.16125 -0.67031,-0.52726 -1.23484,-0.43252 -1.82909,0.30695 -0.28156,0.35036 -0.57384,0.63702 -0.64952,0.63702 -0.63906,0 0.33458,-1.71778 1.91897,-3.38562 0.82537,-0.86885 0.664299,-0.629471 0.941729,-0.378401 0.16108,0.14577 0.29286,0.3855 0.29286,0.53273 0,0.14724 0.51957,0.75999 1.1546,1.36168 1.2957,1.22768 3.825047,3.63745 6.335017,6.03554 0.92226,0.88115 2.34786,2.211241 3.168,2.955751 1.29752,1.17787 1.28063,2.0556 2.92557,3.68197 l 2.44203,2.41445 -0.77478,-0.004 c -0.42612,-0.002 -1.24059,-0.1635 -1.80992,-0.35832 z m -2.99541,-7.100153 c -1.17386,-1.14375 -2.23739,-2.065817 -2.48887,-2.279057 l -0.45723,-0.38772 0.2345,-0.491775 c 0.167,-0.350212 0.43093,-0.969009 0.55577,-1.343532 0.25391,-0.761755 0.86875,-0.765201 0.85665,-0.663302 -0.0238,0.20082 0.10096,0.50576 0.22435,0.67451 0.22035,0.30134 0.23564,0.30047 0.85777,-0.0492 0.31312,-0.106206 0.41717,-0.440829 0.50389,0.21295 0,0.39303 0.008,0.529667 -0.3525,0.940497 -0.50539,0.57561 -0.18081,0.526622 0.0937,1.036382 0.16989,0.31545 0.23038,0.62994 0.15816,0.82217 -0.10471,0.2787 -0.0881,0.28783 0.15849,0.0871 0.38965,-0.31711 0.73647,0.0174 0.4664,0.44986 -0.24136,0.38647 -0.0596,0.57065 0.20703,0.20979 0.16562,-0.22416 0.24288,-0.23795 0.40989,-0.0732 0.16823,0.16598 0.16818,0.26329 -3.1e-4,0.53308 -0.26914,0.43096 -0.0671,0.63095 0.22867,0.2264 0.2139,-0.29253 0.24348,-0.29495 0.49773,-0.0407 0.21113,0.21113 0.22822,0.3124 0.0781,0.46255 -0.10574,0.10573 -0.18997,0.26749 -0.18718,0.35946 0.003,0.092 0.10684,0.0328 0.23123,-0.13145 0.26589,-0.35113 0.72032,-0.24068 0.71686,0.17423 -0.001,0.15603 -0.24125,0.56606 -0.53321,0.91117 l -0.41107,0.52482 z m 2.82358,-3.247257 -0.0126,-0.51757 -0.15995,0.43795 c -0.21767,0.59596 -0.84366,0.62681 -0.73073,0.036 0.0423,-0.22107 0.0148,-0.44029 -0.0611,-0.48716 -0.0758,-0.0469 -0.13789,0.0581 -0.13789,0.23328 0,0.39017 -0.20145,0.53149 -0.56098,0.39352 -0.2208,-0.0847 -0.257,-0.25207 -0.19473,-0.9001 0.10757,-1.11952 0.0151,-1.3303 -0.74487,-1.69821 -1.37438,-0.66532 -2.53376,-0.25628 -2.97048,1.04803 -0.37829,1.12983 -0.49006,1.418934 -0.74537,1.361204 -0.12022,-0.0272 -1.54735,-1.30355 -3.171401,-2.83637 l -2.95281,-2.78695 -0.07057,-1.171374 c 0.0594,-1.5384 0.41838,-2.33394 1.55103,-3.43717 1.02129,-0.99477 2.188921,-1.64653 3.651491,-2.03821 1.69704,-0.45447 2.78209,-0.54562 4.05234,-0.34041 2.13098,0.34424 3.47856,1.36595 4.41501,3.34735 0.2691,0.56934 0.66869,1.27563 0.88802,1.56954 0.35659,0.47786 0.3883,0.63463 0.29975,1.48187 -0.0916,0.87621 -0.0676,0.97896 0.31952,1.36603 l 0.41856,0.41856 -0.3373,1.04729 c -0.28145,0.87386 -0.30802,1.14273 -0.16044,1.6236 0.10633,0.34645 0.13226,0.93338 0.065,1.47159 -0.10291,0.82368 -0.14427,0.89528 -0.5171,0.89528 -0.34638,0 -0.39419,-0.0578 -0.32913,-0.39814 0.0419,-0.21897 0.0222,-0.39813 -0.0438,-0.39813 -0.066,0 -0.16487,0.17916 -0.21983,0.39813 -0.1457,0.58051 -0.57162,0.51417 -0.57162,-0.089 0,-0.28422 -0.0663,-0.44616 -0.15925,-0.38874 -0.0876,0.0541 -0.15926,0.27336 -0.15926,0.48716 0,0.28257 -0.087,0.38874 -0.31851,0.38874 -0.25059,0 -0.32119,-0.11036 -0.33108,-0.51758 z m 0.66164,-3.39698 c 0.34061,-0.36256 0.38609,-0.55754 0.38609,-1.65545 0,-1.32396 -0.27437,-1.91494 -0.88902,-1.91494 -1.04745,0 -1.43157,2.68239 -0.52722,3.68169 0.36244,0.4005 0.57046,0.37802 1.03015,-0.1113 z m -2.45787,-3.452067 c 0.24296,-0.45398 0.20062,-1.05656 -0.0913,-1.29881 -0.49203,-0.40834 -0.90769,0.60159 -0.53455,1.29881 0.0907,0.16942 0.23148,0.30804 0.3129,0.30804 0.0814,0 0.22224,-0.13862 0.31291,-0.30804 z M 93.496194,90.50817 c -0.25163,-0.25163 -0.25236,-0.29216 -0.0101,-0.55988 0.33594,-0.37122 0.15221,-0.57008 -0.20068,-0.21719 -0.24935,0.24935 -0.29113,0.24363 -0.64436,-0.0882 -0.33876,-0.31825 -0.3531,-0.38204 -0.13907,-0.61854 0.34426,-0.38041 0.29396,-0.57693 -0.0646,-0.25243 -0.25813,0.2336 -0.35292,0.24343 -0.63702,0.066 -0.35693,-0.2229 -0.43434,-0.52862 -0.17451,-0.68921 0.0876,-0.0541 0.15925,-0.17696 0.15925,-0.27296 0,-0.096 -0.14198,-0.046 -0.31552,0.111 -0.25821,0.23368 -0.35945,0.24909 -0.55739,0.0848 -0.35059,-0.29096 -0.30058,-0.52365 0.2197,-1.02211 0.58222,-0.5578 0.65025,-0.52246 2.40192,1.24799 l 1.35058,1.36505 -0.55847,0.55847 c -0.52606,0.52606 -0.57423,0.54273 -0.82975,0.28721 z m -3.68955,-3.38661 c -0.80385,-0.52731 -0.83648,-0.77095 -0.18986,-1.41757 l 0.5758,-0.5758 0.59455,0.59455 0.59455,0.59455 -0.5548,0.5548 -0.5548,0.5548 z"
       id="path3-7"
       sodipodi:nodetypes="csscsscsssscscsccsccscssscccccccsssccsccsccscscsccccscccccccscccccccccccccccccscscssscssccssssscccsccccscccccscccccscccscccccc" /></g></svg>
