<?xml version="1.0" encoding="UTF-8" standalone="no"?>
<!-- Created with Inkscape (http://www.inkscape.org/) -->

<svg
   width="24.616295mm"
   height="24.569521mm"
   viewBox="0 0 24.616295 24.569521"
   version="1.1"
   id="svg1"
   xml:space="preserve"
   xmlns:inkscape="http://www.inkscape.org/namespaces/inkscape"
   xmlns:sodipodi="http://sodipodi.sourceforge.net/DTD/sodipodi-0.dtd"
   xmlns="http://www.w3.org/2000/svg"
   xmlns:svg="http://www.w3.org/2000/svg"><sodipodi:namedview
     id="namedview1"
     pagecolor="#ffffff"
     bordercolor="#000000"
     borderopacity="0.25"
     inkscape:showpageshadow="2"
     inkscape:pageopacity="0.0"
     inkscape:pagecheckerboard="0"
     inkscape:deskcolor="#d1d1d1"
     inkscape:document-units="mm" /><defs
     id="defs1" /><g
     inkscape:label="Capa 1"
     inkscape:groupmode="layer"
     id="layer1"
     transform="translate(-140.90175,-127.22664)"><path
       d="m 144.28267,148.01836 c 0.32368,-0.17162 0.66224,-0.34726 1.01647,-0.52762 -1.46104,-1.47556 -2.59601,-3.36709 -3.10265,-5.22707 -0.17729,0.0219 -0.35085,-0.006 -0.48731,-0.0532 -0.1777,-0.0613 -0.31969,-0.14479 -0.47284,-0.24184 -0.0607,-0.0385 -0.11522,-0.081 -0.16485,-0.1261 0.0518,0.31634 0.11161,0.61913 0.18707,0.88574 0.58145,2.05432 1.62316,3.84496 3.02411,5.29012 z"
       style="stroke-width:0.97727"
       id="path71" /><path
       d="m 158.53296,150.62957 c -0.42801,-0.16212 -0.87921,-0.34452 -1.36633,-0.55604 -1.10434,0.39057 -2.35929,0.64116 -3.7884,0.69453 -0.23406,0.009 -0.70228,-0.016 -0.70228,-0.016 -0.85382,-0.0196 -2.08012,-0.27945 -3.206,-0.65733 -0.47686,0.22041 -0.92777,0.42091 -1.35186,0.59997 0.86498,0.38972 1.78642,0.69828 2.76211,0.90795 1.58756,0.34105 4.00052,0.22197 5.74538,-0.2837 0.71385,-0.20687 1.33343,-0.43251 1.90738,-0.68936 z"
       style="stroke-width:0.97727"
       id="path65" /><path
       d="m 165.35115,141.57637 c -0.15289,0.11432 -0.34247,0.19483 -0.51522,0.19482 0.0829,0 -0.25884,0.0508 -0.41186,0.10956 -0.049,0.0188 -0.10126,0.0139 -0.15451,0.004 -0.41688,1.6434 -1.28336,3.68062 -2.86287,5.39554 0.30005,0.16771 0.6054,0.343 0.91674,0.52658 1.66982,-1.78163 2.66046,-3.81159 3.02772,-6.23011 z"
       style="stroke-width:0.97727"
       id="path59" /><path
       d="m 152.97671,127.22996 c -5.36798,0.12424 -10.25583,3.67438 -11.72228,9.13278 -0.2735,1.01915 -0.38498,2.39751 -0.34468,3.71036 0.16446,-0.26033 0.42032,-0.47471 0.78186,-0.53795 0.0689,-0.012 0.13806,-0.0207 0.20722,-0.0258 -0.23205,-5.2264 3.80306,-9.21265 7.75715,-10.681 0.67844,-0.44941 1.43622,-0.74262 2.21537,-0.88522 0.62024,-0.11351 1.25679,-0.13711 1.88257,-0.0744 0.84953,0.0851 1.67855,0.33084 2.42208,0.72502 2.89569,0.75635 5.28988,2.55284 6.84557,5.1785 0.7323,1.23594 1.35595,3.15938 1.47382,4.54597 0,0 0.0405,0.46656 0.0703,0.82114 0.26817,0.0765 0.51678,0.24909 0.68833,0.48369 0.0998,0.13647 0.17923,0.27534 0.24701,0.416 0.009,-0.19414 0.0148,-0.39019 0.0165,-0.58911 0.0302,-3.55123 -1.25466,-6.51293 -3.89382,-8.9762 -1.30786,-1.22067 -2.47881,-1.93884 -4.08968,-2.50889 -1.51374,-0.53567 -3.05431,-0.76963 -4.55734,-0.73484 z"
       style="stroke-width:0.97727"
       id="path56" /><g
       inkscape:label="Capa 1"
       id="layer1-2"
       transform="translate(26.630778,-31.999526)"><path
         style="fill:#000000"
         d="m 115.60854,183.1879 c -0.86361,-0.19418 -1.30273,-0.44008 -1.089,-0.60985 2.02527,-1.60874 6.2306,-3.71603 14.86076,-7.44672 1.2733,-0.55043 2.3151,-1.09172 2.3151,-1.20286 0,-0.11114 0.16773,-0.26644 0.37273,-0.3451 0.26614,-0.10213 0.56881,0.38594 1.05834,1.70662 0.79059,2.13291 0.81948,2.34854 0.31461,2.34854 -0.20405,0 -0.49551,-0.35718 -0.6477,-0.79375 -0.15219,-0.43656 -0.43768,-0.79375 -0.63442,-0.79375 -0.4894,0 -0.99273,0.54305 -0.99273,1.07107 0,0.49815 -1.91488,1.46612 -2.35826,1.1921 -0.15816,-0.0977 -0.28757,-0.0587 -0.28757,0.0868 0,0.51286 0.50253,0.56454 1.38719,0.14267 0.86858,-0.41419 0.94731,-0.40249 2.73015,0.40577 1.42087,0.64416 4.29223,2.36109 5.66458,3.38714 0.34848,0.26053 -0.82565,0.58594 -2.12713,0.58952 -1.7984,0.005 -3.48219,-0.47687 -6.47397,-1.85254 -2.07495,-0.9541 -2.24395,-1.08683 -1.86555,-1.46523 0.22885,-0.22885 0.53606,-0.34194 0.6827,-0.25131 0.14664,0.0906 0.26661,0.035 0.26661,-0.12373 0,-0.41542 -0.87372,-0.69343 -0.99891,-0.31784 -0.0575,0.1726 -0.21351,0.24653 -0.3466,0.16427 -0.13309,-0.0822 -0.24199,-0.0235 -0.24199,0.13065 0,0.15411 -0.11675,0.2802 -0.25945,0.2802 -0.1427,0 -1.72028,0.70472 -3.50573,1.56606 -4.06443,1.96075 -6.10712,2.51719 -7.82376,2.13122 z m 3.51451,-5.55688 c -0.20278,-0.32811 1.14531,-3.96124 1.46984,-3.96124 0.12557,0 0.32352,0.15689 0.43989,0.34864 0.11637,0.19175 1.19845,0.74277 2.40462,1.22449 1.20618,0.48172 2.13946,0.92944 2.07396,0.99494 -0.0655,0.0655 -0.84366,0.46176 -1.72923,0.88057 l -1.61015,0.76148 -0.40446,-0.78214 c -0.54257,-1.04923 -1.39644,-1.0437 -1.79477,0.0116 -0.3124,0.82764 -0.56481,0.9826 -0.8497,0.52165 z m -0.15898,-2.57217 c -0.0172,-0.10915 -0.0213,-0.27553 -0.009,-0.36974 0.0123,-0.0942 -0.21177,-0.1101 -0.49783,-0.0353 -0.37915,0.0992 -0.52122,0.002 -0.52418,-0.35787 -0.003,-0.41794 -0.0449,-0.43285 -0.26961,-0.097 -0.23456,0.35054 -0.30358,0.34783 -0.59126,-0.0232 -0.17913,-0.23106 -0.47453,-0.36996 -0.65643,-0.30868 -0.3729,0.12562 -0.43426,-0.41818 -0.10563,-0.93619 0.17024,-0.26835 0.56843,-0.18963 1.84803,0.36531 0.89707,0.38905 1.63104,0.80113 1.63104,0.91572 0,0.70096 -0.72984,1.45014 -0.82508,0.84696 z m 14.18372,-0.6042 c -0.21904,-0.69012 -0.28554,-0.62796 1.53128,-1.43144 1.45811,-0.64484 1.51,-0.64949 1.77275,-0.15854 0.36888,0.68926 0.33995,0.88832 -0.10431,0.71784 -0.20624,-0.0791 -0.44443,0.0371 -0.52931,0.25827 -0.0849,0.2212 -0.30309,0.35206 -0.48492,0.2908 -0.18182,-0.0613 -0.44965,0.0359 -0.59517,0.21587 -0.14552,0.17998 -0.52287,0.40376 -0.83856,0.4973 -0.43664,0.12937 -0.61651,0.036 -0.75176,-0.3901 z m -8.52999,0.0776 c -0.1819,-0.062 -0.34695,-0.43028 -0.36676,-0.81834 -0.033,-0.64553 -0.046,-0.65359 -0.15272,-0.0948 -0.0765,0.40048 -0.26908,0.57951 -0.55929,0.51997 -0.35264,-0.0724 -0.42645,-0.34436 -0.36319,-1.33839 0.0779,-1.22468 0.065,-1.24756 -0.70603,-1.24756 -0.61616,0 -0.91209,-0.20497 -1.37322,-0.95109 -0.5474,-0.88571 -0.56057,-1.00848 -0.19162,-1.78594 0.31032,-0.65391 0.34808,-1.23161 0.17421,-2.66553 -0.19891,-1.64045 -0.16063,-1.94165 0.36847,-2.89866 0.32475,-0.5874 1.07807,-1.41032 1.67404,-1.82873 2.51876,-1.76831 6.44437,-0.99763 7.94287,1.55936 0.62993,1.0749 0.67695,1.34944 0.52906,3.08923 -0.1191,1.40104 -0.0634,2.08384 0.20933,2.56431 0.32914,0.57993 0.31286,0.77005 -0.14228,1.66221 -0.36923,0.72375 -0.7332,1.05124 -1.29273,1.16314 -0.73626,0.14725 -0.77546,0.22109 -0.71785,1.35193 0.0662,1.2994 -0.39943,1.8059 -0.73646,0.80111 -0.19852,-0.59186 -0.20596,-0.589 -0.31584,0.12147 -0.13545,0.87573 -0.78828,0.96673 -0.949,0.13229 -0.0983,-0.51042 -0.1198,-0.49155 -0.15069,0.13229 -0.0442,0.89312 -0.8217,1.01462 -0.84655,0.13229 l -0.0168,-0.59531 -0.24749,0.61747 c -0.30145,0.75212 -0.83523,0.63138 -1.06199,-0.24021 l -0.16699,-0.64184 -0.10489,0.68604 c -0.0617,0.40332 -0.24119,0.63957 -0.43562,0.57327 z m 2.3261,-3.61851 c -0.11215,-0.30317 -0.35522,-0.55122 -0.54017,-0.55122 -0.18494,0 -0.42801,0.24805 -0.54016,0.55122 -0.17617,0.47623 -0.10269,0.55121 0.54016,0.55121 0.64286,0 0.71634,-0.075 0.54017,-0.55121 z m -2.27163,-1.20824 c 0.94845,-0.3606 0.83673,-0.72788 -0.31906,-1.04886 -1.303,-0.36186 -1.52931,-0.35023 -1.90102,0.0976 -0.24109,0.29049 -0.2334,0.50369 0.0337,0.93627 0.35487,0.57461 0.70794,0.57702 2.18633,0.0149 z m 5.6718,-0.96471 c -0.36486,-0.43964 -0.94022,-0.45862 -2.06079,-0.068 -1.07338,0.37418 -0.93263,0.80605 0.39062,1.19855 0.93051,0.276 1.08514,0.25234 1.50413,-0.23015 0.35744,-0.4116 0.3964,-0.62285 0.16604,-0.90041 z m -15.54189,4.69483 c -0.45325,-0.28724 -0.29276,-1.19283 0.22751,-1.28379 0.74736,-0.13066 1.14101,0.33428 0.80872,0.95517 -0.32951,0.61569 -0.49861,0.66932 -1.03623,0.32862 z m 22.04407,-0.58641 c -0.26847,-0.84587 0.63632,-1.53273 1.12989,-0.85773 0.39041,0.53391 0.43908,1.14917 0.0909,1.14917 -0.13362,0 -0.42052,0.0681 -0.63755,0.15142 -0.25467,0.0977 -0.46151,-0.0593 -0.58324,-0.44286 z"
         id="path2" /></g><path
       d="m 143.25896,142.49104 c 0.0439,-0.007 0.0892,-0.0134 0.12764,-0.0264 -0.14258,0.0481 -0.16159,0.007 -0.1385,0.0176 0.003,0.001 0.008,0.007 0.0109,0.009 z"
       id="path89" /><path
       d="m 161.98184,142.75873 c 0.0137,0.007 0.0148,0.005 0.0155,-0.009 -0.002,-4.3e-4 -0.004,-5.9e-4 -0.006,-0.001 -0.003,0.004 -0.007,0.006 -0.01,0.01 z"
       id="path84" /><path
       d="m 161.98184,142.75873 c 0.003,-0.004 0.007,-0.006 0.01,-0.01 -0.0299,-0.007 -0.0588,-0.0104 -0.0894,-0.0207 0.0686,0.0231 0.0705,0.026 0.0796,0.0305 z"
       id="path83" /><path
       d="m 157.85703,141.75776 c -0.012,0.0461 -0.0212,0.0997 -0.0212,0.17156 0,-0.0665 0.0112,-0.1182 0.0212,-0.17156 z"
       id="path79" /><path
       d="m 157.91646,141.57172 c -0.0261,0.0527 -0.046,0.1147 -0.0594,0.18604 0.0279,-0.10685 0.0768,-0.15745 0.10025,-0.18759 0.0336,-0.0431 0.0463,-0.0531 0.0506,-0.0568 0.009,-0.007 -0.0199,0.0144 -0.0646,0.0429 -0.005,0.003 -0.021,0.0118 -0.0269,0.0155 z"
       id="path78" /><path
       d="m 149.65598,128.82831 c 1.29438,-0.48067 2.57937,-0.69309 3.70262,-0.58911 0.1183,-0.0454 0.69823,-0.0208 1.28829,0.0548 0.52401,0.0672 1.03297,0.17013 1.52911,0.29972 -0.74353,-0.39418 -1.57255,-0.63991 -2.42208,-0.72502 -0.62578,-0.0627 -1.26233,-0.0391 -1.88257,0.0744 -0.77915,0.1426 -1.53693,0.43581 -2.21537,0.88522 z"
       id="path76" /></g></svg>
