<?xml version="1.0" encoding="UTF-8" standalone="no"?>
<!-- Created with Inkscape (http://www.inkscape.org/) -->

<svg
   width="25.194311mm"
   height="25.140877mm"
   viewBox="0 0 25.194311 25.140877"
   version="1.1"
   id="svg1"
   xml:space="preserve"
   xmlns:inkscape="http://www.inkscape.org/namespaces/inkscape"
   xmlns:sodipodi="http://sodipodi.sourceforge.net/DTD/sodipodi-0.dtd"
   xmlns="http://www.w3.org/2000/svg"
   xmlns:svg="http://www.w3.org/2000/svg"><sodipodi:namedview
     id="namedview1"
     pagecolor="#ffffff"
     bordercolor="#000000"
     borderopacity="0.25"
     inkscape:showpageshadow="2"
     inkscape:pageopacity="0.0"
     inkscape:pagecheckerboard="0"
     inkscape:deskcolor="#d1d1d1"
     inkscape:document-units="mm" /><defs
     id="defs1" /><g
     inkscape:label="Capa 1"
     inkscape:groupmode="layer"
     id="layer1"
     transform="translate(-74.133264,-177.21133)"><path
       style="fill:#000000"
       d="m 84.348712,202.15413 c -4.884352,-1.04966 -8.522196,-4.4048 -9.845593,-9.08049 -0.491733,-1.73734 -0.493346,-4.69077 -0.0036,-6.51386 1.920712,-7.14925 9.577474,-11.09899 16.65841,-8.59325 1.648325,0.5833 2.846482,1.31841 4.184755,2.56748 2.700559,2.52056 4.015234,5.55126 3.98436,9.18508 -0.03041,3.57959 -1.144978,6.39181 -3.477057,8.77316 -1.775797,1.81331 -3.207414,2.67192 -5.621673,3.37157 -1.785628,0.51748 -4.255156,0.63941 -5.879644,0.29031 z m 2.505118,-4.42877 -0.05073,-3.57523 0.804786,0.39828 c 0.500525,0.24771 1.200711,0.43006 1.852028,0.48235 0.966758,0.0776 1.137171,0.0396 2.21739,-0.49426 1.810657,-0.89488 3.680003,-2.93522 4.169577,-4.55099 l 0.11288,-0.37254 -4.544005,0.0531 -4.544005,0.0531 -0.102912,-2.71559 c -0.0566,-1.49357 -0.103132,-3.56021 -0.103401,-4.59254 l -4.88e-4,-1.87695 1.078248,0.004 c 2.849973,0.0109 6.303894,2.25972 7.700913,5.014 0.4874,0.96093 0.560252,1.26599 0.618081,2.5882 l 0.06556,1.49888 h 1.122298 1.122298 l -0.09165,-1.07825 c -0.120607,-1.41884 -0.758739,-3.38732 -1.508065,-4.652 -1.864647,-3.14706 -4.904059,-5.13507 -8.569728,-5.60525 -0.603774,-0.0774 -1.196811,-0.1028 -1.317859,-0.0564 -0.157337,0.0604 -0.220088,0.39664 -0.220088,1.17939 v 1.09494 l -0.599027,0.16491 c -0.859786,0.23671 -2.072302,0.98395 -2.995135,1.84583 -0.439286,0.41027 -0.995165,0.84851 -1.235285,0.97387 -0.500163,0.26111 -0.844035,0.84674 -1.00687,1.71472 -0.0946,0.50425 -0.210487,0.64159 -0.710104,0.84149 l -0.597055,0.2389 -0.0903,1.19396 c -0.07589,1.00348 -0.162294,1.27926 -0.54158,1.72866 -0.521769,0.61822 -0.92562,0.73466 -2.547875,0.73466 h -1.178086 l 0.0028,0.59903 c 0.0167,3.6061 3.01417,7.99399 6.554133,9.59436 1.380226,0.62399 3.27624,1.10465 4.465189,1.13198 l 0.718832,0.0165 z m -6.947002,0.4142 c -0.356071,-0.39345 -0.708642,-1.28155 -0.774527,-1.95098 -0.04707,-0.47822 -0.003,-0.56647 0.30439,-0.61013 0.23663,-0.0336 0.359417,0.0314 0.359417,0.19025 0,0.13271 0.08237,0.2922 0.183037,0.35441 0.129968,0.0803 0.15044,-0.0168 0.07061,-0.33483 -0.0752,-0.29962 -0.04324,-0.49185 0.09651,-0.58047 0.356999,-0.22642 0.608291,-0.1512 0.608291,0.18207 0,0.17572 0.06745,0.31948 0.149878,0.31948 0.08243,0 0.136346,-0.19486 0.119806,-0.43302 -0.03873,-0.55764 0.408095,-0.67607 0.650656,-0.17246 0.169335,0.35158 0.176643,0.34626 0.187032,-0.13619 0.0116,-0.53886 0.435822,-0.86339 0.59304,-0.45369 0.128708,0.33541 0.416296,0.29583 0.3097,-0.0426 -0.06131,-0.19466 0.05668,-0.36217 0.388586,-0.55166 0.547758,-0.31272 0.582321,-0.53372 0.206672,-1.32147 -0.195939,-0.41088 -0.221896,-0.61417 -0.09467,-0.7414 0.127227,-0.12723 0.224446,-0.0834 0.354565,0.15969 0.214508,0.40081 0.969717,0.81774 1.47973,0.81691 0.202042,-3.3e-4 0.59125,-0.13713 0.864908,-0.304 l 0.497559,-0.3034 0.08223,1.86147 c 0.04523,1.0238 0.02718,2.00523 -0.04011,2.18095 -0.08626,0.22525 -0.445709,0.40997 -1.218753,0.62631 -0.603028,0.16876 -1.946285,0.58208 -2.985016,0.91851 -1.038732,0.33642 -1.944102,0.61167 -2.011934,0.61167 -0.06783,0 -0.239556,-0.12842 -0.381608,-0.28539 z m 2.107965,-5.58507 c -0.0097,-0.0659 -0.0035,-0.28962 0.01378,-0.49717 0.01972,-0.23645 -0.03333,-0.33732 -0.142059,-0.27012 -0.09544,0.059 -0.173524,0.24677 -0.173524,0.4173 0,0.2257 -0.110615,0.31005 -0.40659,0.31005 -0.38123,0 -0.399777,-0.0363 -0.297371,-0.58218 0.07822,-0.41693 0.0576,-0.55028 -0.07263,-0.4698 -0.100018,0.0618 -0.18185,0.28786 -0.18185,0.50232 0,0.39461 -0.111093,0.45986 -0.517462,0.30392 -0.143077,-0.0549 -0.207229,-0.27149 -0.177423,-0.59902 l 0.04669,-0.51303 -0.187861,0.44469 c -0.259872,0.61516 -0.688875,0.5037 -0.657923,-0.17093 0.01295,-0.28236 -0.04096,-0.51337 -0.119805,-0.51337 -0.07885,0 -0.14446,0.0898 -0.145805,0.19967 -0.0054,0.43844 -0.263836,0.63874 -0.595312,0.46134 -0.285955,-0.15304 -0.30229,-0.24329 -0.158082,-0.87348 l 0.160826,-0.70281 1.200181,-0.10145 c 0.6601,-0.0558 1.867293,-0.10146 2.682652,-0.10146 h 1.482471 l -0.45362,1.15812 c -0.249492,0.63697 -0.493894,1.28392 -0.543116,1.43767 -0.08637,0.26979 -0.720163,0.40368 -0.756166,0.15974 z m 2.124429,-0.52538 c -0.488055,-0.45469 -0.477798,-1.41506 0.02011,-1.88282 0.853706,-0.80201 2.186137,-0.208 2.186137,0.97461 0,0.75972 -0.491106,1.23391 -1.277924,1.23391 -0.361605,0 -0.709879,-0.12219 -0.928323,-0.3257 z m 1.594642,-0.25815 c 0.594699,-0.53819 0.182551,-1.65251 -0.611207,-1.65251 -0.458442,0 -1.013556,0.52492 -1.013556,0.95844 0,0.42265 0.55108,0.95844 0.985801,0.95844 0.190761,0 0.478294,-0.11896 0.638962,-0.26437 z m -1.139172,-0.28705 c -0.424344,-0.5113 0.198914,-1.29673 0.752398,-0.94818 0.553075,0.34831 0.356034,1.18012 -0.279545,1.18012 -0.1542,0 -0.366983,-0.10437 -0.472853,-0.23194 z m -3.043322,-3.48203 c -0.599247,-0.98242 -0.607246,-1.906 -0.023,-2.65539 0.281859,-0.36153 0.313962,-0.36703 0.693081,-0.11862 0.440388,0.28856 1.310016,1.43765 1.46509,1.93591 0.0595,0.19118 -0.02738,0.52881 -0.215795,0.83864 -0.271845,0.44701 -0.404265,0.51862 -0.959051,0.51862 -0.554727,0 -0.68741,-0.0717 -0.960325,-0.51916 z"
       id="path4" /></g></svg>
